<svg id="Capa_1" enable-background="new 0 0 512.001 512.001" height="512" viewBox="0 0 512.001 512.001" width="512" xmlns="http://www.w3.org/2000/svg"><ellipse cx="107.561" cy="218.54" fill="#e0e0e0" rx="21.178" ry="20.62"/><path d="m107.561 197.92c-3.326 0-6.461.768-9.262 2.098 7.048 3.348 11.916 10.372 11.916 18.522s-4.868 15.174-11.916 18.522c2.801 1.33 5.936 2.098 9.262 2.098 11.697 0 21.178-9.232 21.178-20.62s-9.482-20.62-21.178-20.62z" fill="#ccc"/><ellipse cx="419.141" cy="268.523" fill="#e0e0e0" rx="21.178" ry="20.62"/><path d="m419.141 247.903c-3.326 0-6.461.768-9.262 2.098 7.048 3.348 11.917 10.372 11.917 18.522 0 8.149-4.868 15.174-11.917 18.522 2.801 1.33 5.936 2.098 9.262 2.098 11.697 0 21.179-9.232 21.179-20.619-.001-11.389-9.483-20.621-21.179-20.621z" fill="#ccc"/><ellipse cx="86.382" cy="339.506" fill="#e0e0e0" rx="21.179" ry="20.62"/><path d="m86.382 318.886c-3.326 0-6.461.767-9.262 2.098 7.048 3.348 11.917 10.372 11.917 18.522 0 8.149-4.868 15.174-11.917 18.522 2.801 1.33 5.936 2.098 9.262 2.098 11.697 0 21.178-9.232 21.178-20.62.001-11.388-9.481-20.62-21.178-20.62z" fill="#ccc"/><path d="m346.619 37.57c-6.66 0-13.09.949-19.173 2.687 19.223 8.198 32.658 26.873 32.658 48.613 0 22.23-14.047 41.255-33.965 49.15-3.302 8.497-8.781 15.949-15.771 21.72 10.495 6.455 22.919 10.206 36.25 10.206 37.546 0 67.982-29.633 67.982-66.188.001-36.554-30.435-66.188-67.981-66.188z" fill="#a0a0a0"/><path d="m147.055 108.11c0-14.062 5.085-26.964 13.556-37.07-.134-1.598-.221-3.21-.221-4.841 0-2.916.226-5.779.648-8.581-5.28-1.66-10.907-2.566-16.754-2.566-30.098 0-54.496 23.755-54.496 53.058s24.399 53.058 54.496 53.058c9.53 0 18.484-2.387 26.277-6.572-14.29-10.731-23.506-27.556-23.506-46.486z" fill="#a0a0a0"/><path d="m360.105 88.871c0-29.303-24.399-53.058-54.497-53.058-10.717 0-20.703 3.024-29.13 8.226-8.982-21.421-30.581-36.523-55.813-36.523-33.288 0-60.274 26.273-60.274 58.683 0 1.632.086 3.243.221 4.841-8.47 10.107-13.556 23.009-13.556 37.07 0 32.41 26.986 58.683 60.274 58.683 8.428 0 16.45-1.69 23.734-4.732v68.61h49.875v-58.656c20.778-2.132 38.067-15.633 45.201-33.994 19.918-7.896 33.965-26.921 33.965-49.15z" fill="#e0e0e0"/><path d="m147.055 108.11c0-14.062 5.085-26.964 13.556-37.07-.134-1.598-.221-3.21-.221-4.841 0-2.916.226-5.779.648-8.581-4.89-1.537-10.08-2.418-15.465-2.541-.169 1.909-.273 3.836-.273 5.788 0 1.851.098 3.679.25 5.491-9.608 11.464-15.376 26.097-15.376 42.047 0 20.838 9.842 39.433 25.24 51.638 5.38-1.09 10.475-2.936 15.147-5.445-14.29-10.731-23.506-27.556-23.506-46.486z" fill="#8e8e8e"/><path d="m327.446 40.257c19.223 8.198 32.658 26.873 32.658 48.613 0 22.23-14.047 41.255-33.965 49.15-3.302 8.497-8.781 15.949-15.771 21.72 5.007 3.079 10.456 5.535 16.23 7.27 4.747-5.423 8.56-11.644 11.197-18.43 23.482-9.308 40.042-31.737 40.042-57.943 0-22.37-12.07-41.986-30.207-53.042-.338-.005-.672-.025-1.011-.025-6.66 0-13.09.949-19.173 2.687z" fill="#8e8e8e"/><path d="m276.478 44.038c-8.982-21.421-30.581-36.523-55.813-36.523-3.022 0-5.991.223-8.894.641-.113.051-.226.09-.338.107 19.375 2.913 38.382 20.206 47.487 37.492 1.308 2.484 4.4 3.436 6.962 2.183 3.35-1.64 6.897-2.953 10.597-3.899 0-.001.001-.002.001-.002s-.001.001-.002.001z" fill="#ccc"/><path d="m305.608 35.813c-3.165 0-6.264.27-9.279.776 25.692 4.277 45.251 26.049 45.251 52.282 0 22.23-11.293 32.478-31.212 40.373-6.628 17.06-24.4 26.505-43.551 29.469-2.524.391-4.404 2.469-4.404 4.957v67.002h18.524v-58.656c20.778-2.132 38.067-15.633 45.201-33.994 19.918-7.895 33.965-26.921 33.965-49.15.002-29.304-24.397-53.059-54.495-53.059z" fill="#ccc"/><path d="m504.486 504.486s-146.476-72.191-209.349-263.671c-1.979-6.028-7.699-10.143-14.199-10.143h-49.875c-6.5 0-12.22 4.116-14.199 10.143-62.873 191.48-209.349 263.671-209.349 263.671z" fill="#994e37"/><path d="m295.137 240.815c-1.979-6.028-7.699-10.143-14.199-10.143h-18.524c6.5 0 12.22 4.116 14.199 10.143 62.873 191.48 198.597 263.671 198.597 263.671h29.276s-146.476-72.191-209.349-263.671z" fill="#844131"/><path d="m232.117 295.983c6.985 1.943 8.238 33.591 23.884 33.591s16.9-31.648 23.884-33.591c9.579-2.665 19.817 29.632 54.894 34.956-14.961-26.534-28.595-56.48-39.642-90.124-1.979-6.028-7.699-10.143-14.199-10.143h-49.875c-6.5 0-12.22 4.116-14.199 10.143-11.047 33.644-24.681 63.59-39.642 90.124 35.077-5.324 45.316-37.62 54.895-34.956z" fill="#ffaa5c"/><path d="m276.613 240.815c9.714 29.583 21.169 56.31 33.592 80.372 6.537 4.491 14.535 8.228 24.574 9.751-14.961-26.534-28.595-56.48-39.642-90.124-1.979-6.028-7.699-10.143-14.199-10.143h-18.524c6.5.001 12.22 4.116 14.199 10.144z" fill="#ff9838"/><path d="m507.808 497.745c-.757-.373-76.436-38.365-141.011-130.132-2.389-3.395-7.078-4.21-10.47-1.821-3.394 2.388-4.209 7.076-1.821 10.47 44.791 63.652 94.042 101.93 122.582 120.709h-442.267c12.454-8.219 28.901-20.184 47.271-36.392 3.112-2.746 3.409-7.495.663-10.607-2.745-3.111-7.494-3.409-10.607-.663-37.792 33.344-67.663 48.292-67.955 48.436-3.134 1.544-4.79 5.044-3.997 8.446s3.825 5.809 7.318 5.809h496.971c3.493 0 6.526-2.407 7.318-5.809.795-3.402-.861-6.901-3.995-8.446z"/><path d="m248.486 360.126v68.686c0 4.15 3.364 7.515 7.515 7.515 4.15 0 7.515-3.364 7.515-7.515v-68.686c0-4.15-3.365-7.515-7.515-7.515s-7.515 3.364-7.515 7.515z"/><path d="m298.682 356.359c-3.991 1.141-6.3 5.3-5.159 9.291.587 2.054 14.972 50.754 66.565 90.838 3.494 2.714 8.714 1.752 11.022-2.013 1.975-3.221 1.18-7.54-1.801-9.856-47.358-36.793-61.109-82.333-61.337-83.107-1.144-3.986-5.304-6.295-9.29-5.153z"/><path d="m191.039 384.271c-16.129 52.733-55.208 80.435-55.6 80.709-3.098 2.15-4.125 6.413-2.334 9.734 2.097 3.887 7.256 5.134 10.893 2.62 1.776-1.228 43.698-30.75 61.412-88.666 1.214-3.969-1.019-8.17-4.988-9.384-3.971-1.215-8.169 1.019-9.383 4.987z"/><path d="m144.285 168.683c8.794 0 17.509-1.845 25.484-5.355 10.804 6.989 23.745 10.98 37.561 10.98 5.521 0 10.945-.639 16.219-1.908v52.041c-6.44 2.252-11.624 7.33-13.824 14.03-24.079 73.333-63.142 137.468-116.103 190.624-2.731 2.741-2.904 7.26-.381 10.197 2.816 3.276 7.976 3.473 11.027.411 30.484-30.595 56.495-64.711 77.85-102.02 21.814-4.557 34.336-18.353 42.77-27.653 1.48-1.632 3.298-3.638 4.776-5.066.717 1.75 1.489 3.937 2.086 5.625 3.728 10.553 9.362 26.5 24.25 26.5s20.521-15.948 24.249-26.5c.596-1.688 1.369-3.875 2.086-5.625 1.478 1.429 3.297 3.434 4.776 5.066 8.446 9.313 20.99 23.132 42.858 27.671 2.514 4.389 5.089 8.734 7.73 13.03 2.173 3.536 6.801 4.64 10.337 2.467s4.64-6.801 2.467-10.337c-19.876-32.339-36.102-67.46-48.228-104.389-2.2-6.699-7.384-11.778-13.824-14.03v-46.006c8.232-1.742 15.868-5.075 22.554-9.694 10.926 5.718 23.133 8.72 35.612 8.72 41.629 0 75.497-33.063 75.497-73.703s-33.867-73.703-75.497-73.703c-6.313 0-12.599.776-18.723 2.305-6.922-2.614-14.433-4.063-22.288-4.063-8.963 0-17.753 1.885-25.82 5.501-11.892-20.768-34.293-33.798-59.124-33.798-31.108 0-57.371 20.576-65.314 48.517-3.643-.645-7.342-.98-11.066-.98-34.193 0-62.011 27.173-62.011 60.572.003 33.4 27.821 60.573 62.014 60.573zm174.921 149.192c-9.224-5.035-15.737-12.183-20.96-17.942-6.278-6.923-12.211-13.463-20.375-11.189-6.48 1.803-8.941 8.771-11.792 16.839-2.318 6.561-5.82 16.477-10.078 16.477s-7.76-9.916-10.078-16.477c-2.85-8.068-5.312-15.036-11.792-16.839-8.164-2.269-14.096 4.267-20.375 11.189-5.203 5.738-11.687 12.853-20.856 17.886 12.172-23.715 22.556-48.625 31.104-74.659.977-2.975 3.814-4.974 7.06-4.974h49.875c3.246 0 6.083 1.999 7.06 4.973 8.492 25.867 18.947 50.876 31.207 74.716zm87.88-214.117c0 32.353-27.126 58.673-60.467 58.673-8.155 0-16.157-1.597-23.578-4.653 3.532-4.208 6.532-8.906 8.847-14.04 21.812-9.948 35.732-31.151 35.732-54.867 0-17.184-7.375-32.706-19.181-43.741 32.501.939 58.647 26.867 58.647 58.628zm-262.801-41.191c2.918 0 5.815.268 8.665.786-.077 1.756-.095 3.508-.022 5.264-4.724 6.187-8.262 13.054-10.536 20.452-1.219 3.967 1.008 8.172 4.975 9.391 3.968 1.217 8.172-1.008 9.391-4.975 1.98-6.441 5.214-12.369 9.613-17.618 2.393-2.855 1.535-6.264 1.535-9.668 0-28.214 23.668-51.168 52.759-51.168 21.566 0 40.753 12.527 48.883 31.914 1.756 4.189 7.007 5.879 10.877 3.488 7.531-4.649 16.239-7.106 25.183-7.106 25.906 0 46.982 20.431 46.982 45.544 0 18.578-11.469 35.128-29.22 42.164-1.944.771-3.478 2.316-4.235 4.264-6.205 15.971-21.5 27.449-38.964 29.241-3.833.393-6.748 3.622-6.748 7.476v51.141h-34.845v-61.095c0-5.266-5.541-8.97-10.41-6.934-6.597 2.754-13.609 4.151-20.839 4.151-24.768 0-45.917-16.327-51.431-39.703-.953-4.039-5-6.539-9.04-5.589-4.039.953-6.541 5-5.589 9.04 2.623 11.117 7.969 20.992 15.255 29.042-3.976 1.039-8.094 1.585-12.24 1.585-25.906 0-46.982-20.43-46.982-45.543.001-25.114 21.077-45.544 46.983-45.544z"/><path d="m107.56 246.674c15.821 0 28.693-12.621 28.693-28.135 0-15.513-12.872-28.134-28.693-28.134s-28.693 12.621-28.693 28.134c0 15.514 12.872 28.135 28.693 28.135zm0-41.239c7.534 0 13.664 5.879 13.664 13.105s-6.13 13.105-13.664 13.105-13.664-5.879-13.664-13.105c.001-7.227 6.13-13.105 13.664-13.105z"/><path d="m390.447 268.523c0 15.513 12.872 28.134 28.693 28.134s28.693-12.621 28.693-28.134-12.872-28.134-28.693-28.134c-15.821-.001-28.693 12.621-28.693 28.134zm42.358 0c0 7.226-6.13 13.105-13.664 13.105s-13.664-5.879-13.664-13.105 6.13-13.105 13.664-13.105 13.664 5.879 13.664 13.105z"/><path d="m86.382 367.64c15.821 0 28.693-12.621 28.693-28.134s-12.872-28.134-28.693-28.134-28.693 12.621-28.693 28.134 12.871 28.134 28.693 28.134zm0-41.239c7.534 0 13.664 5.879 13.664 13.105s-6.13 13.105-13.664 13.105-13.664-5.879-13.664-13.105 6.13-13.105 13.664-13.105z"/></svg>